<?xml version="1.0" encoding="utf-8"?>
<!-- Generator: Adobe Illustrator 23.0.0, SVG Export Plug-In . SVG Version: 6.00 Build 0)  -->
<svg version="1.1" id="Layer_1" xmlns="http://www.w3.org/2000/svg" xmlns:xlink="http://www.w3.org/1999/xlink" x="0px" y="0px"
	 viewBox="0 0 1000 579.03" style="enable-background:new 0 0 1000 579.03;" xml:space="preserve">
<style type="text/css">
	.st0{fill:url(#SVGID_1_);}
	.st1{fill:#761213;}
	.st2{fill:url(#SVGID_2_);}
	.st3{fill:url(#SVGID_3_);}
	.st4{fill:url(#SVGID_4_);}
	.st5{fill:url(#SVGID_5_);}
	.st6{fill:url(#SVGID_6_);}
	.st7{fill:url(#SVGID_7_);}
	.st8{fill:url(#SVGID_8_);}
	.st9{fill:url(#SVGID_9_);}
	.st10{fill:url(#SVGID_10_);}
	.st11{fill:url(#SVGID_11_);}
	.st12{fill:url(#SVGID_12_);}
	.st13{fill:url(#SVGID_13_);}
	.st14{fill:url(#SVGID_14_);}
</style>
<linearGradient id="SVGID_1_" gradientUnits="userSpaceOnUse" x1="14.4127" y1="189.6337" x2="990.4421" y2="189.6337">
	<stop  offset="0" style="stop-color:#752829"/>
	<stop  offset="1" style="stop-color:#E72128"/>
</linearGradient>
<path class="st0" d="M14.41,306.94l164.57-134.23l20.34-126.09l14.24,93.55L378.29,24.25c0,0,276.59,317.26,612.15,327.43
	c-152.53,8.13-335.57,22.37-614.19-244.05C307.11,152.38,14.41,306.94,14.41,306.94z"/>
<polygon class="st1" points="145.69,508.11 178.23,508.11 161.96,266.27 "/>
<rect x="273.21" y="197.57" class="st1" width="51.52" height="48.36"/>
<rect x="352.7" y="197.57" class="st1" width="51.52" height="48.36"/>
<linearGradient id="SVGID_2_" gradientUnits="userSpaceOnUse" x1="273.2121" y1="290.268" x2="324.7333" y2="290.268">
	<stop  offset="0" style="stop-color:#752829"/>
	<stop  offset="1" style="stop-color:#E72128"/>
</linearGradient>
<rect x="273.21" y="266.09" class="st2" width="51.52" height="48.36"/>
<linearGradient id="SVGID_3_" gradientUnits="userSpaceOnUse" x1="352.6972" y1="290.268" x2="404.2184" y2="290.268">
	<stop  offset="0" style="stop-color:#752829"/>
	<stop  offset="1" style="stop-color:#E72128"/>
</linearGradient>
<rect x="352.7" y="266.09" class="st3" width="51.52" height="48.36"/>
<g>
	<linearGradient id="SVGID_4_" gradientUnits="userSpaceOnUse" x1="278.2857" y1="445.4189" x2="377.5706" y2="445.4189">
		<stop  offset="0" style="stop-color:#752829"/>
		<stop  offset="1" style="stop-color:#E72128"/>
	</linearGradient>
	<path class="st4" d="M319.59,499.95h20.42c10.21,0,16.71-1.93,19.51-5.8c2.07-2.78,3.71-10.27,4.92-22.47h13.13v36.6l-71.02-0.36
		h-28.26v-7.25c6.52,0,10.63-0.6,12.32-1.81c1.69-1.21,2.54-3.5,2.54-6.88v-3.26v-2.54v-81.53v-2.17v-3.26
		c0-3.62-0.67-5.98-1.99-7.06c-1.93-1.57-6.22-2.35-12.86-2.35v-7.25c2.28,0,6.63,0,13.05,0c6.42,0,11.55,0,15.39,0
		c3.48,0,8.52,0,15.12,0c6.6,0,11.16,0,13.69,0v7.25c-7.09,0-11.52,0.66-13.29,1.99c-1.77,1.33-2.66,4.17-2.66,8.52v4.35V499.95z"/>
	<linearGradient id="SVGID_5_" gradientUnits="userSpaceOnUse" x1="388.8021" y1="445.4189" x2="522.8716" y2="445.4189">
		<stop  offset="0" style="stop-color:#752829"/>
		<stop  offset="1" style="stop-color:#E72128"/>
	</linearGradient>
	<path class="st5" d="M467.8,457.2h-36.96l-8.34,28.26c-1.21,3.62-1.81,6.16-1.81,7.61l-0.36,0.36c0,2.78,2.05,4.77,6.16,5.98
		c2.9,0.85,6.16,1.27,9.78,1.27v7.61c-2.78,0-6.95,0-12.5,0c-5.56,0-9.72,0-12.5,0c-2.54,0-6.28,0-11.23,0c-4.95,0-8.7,0-11.23,0
		v-7.61c4.23,0,7.34-0.39,9.33-1.18c1.99-0.79,3.83-1.84,5.53-3.17c1.69-1.57,3.74-5.01,6.16-10.33c1.93-4.22,4.41-10.48,7.43-18.75
		c3.02-8.27,6.52-17.67,10.51-28.18c3.5-9.3,7.04-18.66,10.6-28.08c3.56-9.42,6.97-18.9,10.23-28.44h9.78h9.79l33.7,95.66
		c2.78,7.49,4.41,11.72,4.89,12.68c3.14,6.52,8.52,9.79,16.12,9.79v7.61c-3.02,0-7.91,0-14.67,0c-6.76,0-11.9,0-15.4,0
		c-3.87,0-8.28,0-13.23,0c-4.95,0-10.45,0-16.48,0v-7.61c2.17-0.12,4.35-0.3,6.52-0.55c5.92-0.84,9.06-2.84,9.42-5.98v-0.73
		c0-0.96-0.27-2.29-0.82-3.98c-0.54-1.69-1-3.26-1.36-4.71L467.8,457.2z M433.73,448.86h30.8l-15.58-44.21L433.73,448.86z"/>
	<linearGradient id="SVGID_6_" gradientUnits="userSpaceOnUse" x1="533.3798" y1="445.4189" x2="668.1752" y2="445.4189">
		<stop  offset="0" style="stop-color:#752829"/>
		<stop  offset="1" style="stop-color:#E72128"/>
	</linearGradient>
	<path class="st6" d="M548.24,486.45v-82.06v-2.19v-3.28c0-3.65-0.68-6.02-2.04-7.11c-1.86-1.58-6.13-2.37-12.81-2.37v-6.88
		c2.17,0,5.37,0,9.6,0c4.23,0,7.43,0,9.6,0h17.39l71.75,95.3v-73.44c0-6.7-0.88-10.87-2.63-12.51c-1.75-1.64-6.55-2.47-14.4-2.47
		v-6.88c2.41,0,6.55,0,12.41,0c5.86,0,8.85,0,8.97,0c2.41,0,6.07,0,10.96,0s8.61,0,11.14,0v6.88c-7.85,0-12.53,0.76-14.04,2.27
		c-1.51,1.51-2.26,5.72-2.26,12.63v103.95h-3.99c-1.21,0-2.35,0-3.44,0c-1.57,0-2.72,0-3.44,0c-1.57,0-3.32,0-5.25,0
		c-1.93,0-3.44,0-4.53,0l-72.83-97.84v75.98c0,6.7,0.81,10.8,2.45,12.33c1.63,1.52,6.61,2.28,14.95,2.28v7.25
		c-2.78,0-6.71,0-11.78,0c-5.07,0-8.88,0-11.41,0h-19.2v-7.25c6.88,0,11.08-0.82,12.59-2.46
		C547.48,496.94,548.24,492.9,548.24,486.45z"/>
	<linearGradient id="SVGID_7_" gradientUnits="userSpaceOnUse" x1="675.7851" y1="445.4189" x2="796.0873" y2="445.4189">
		<stop  offset="0" style="stop-color:#752829"/>
		<stop  offset="1" style="stop-color:#E72128"/>
	</linearGradient>
	<path class="st7" d="M689.92,486.18v-81.53v-1.81v-3.63c0-3.5-0.68-5.86-2.05-7.06c-1.86-1.57-5.89-2.35-12.08-2.35v-7.25
		c1.93,0,6.04,0,12.32,0c6.28,0,11.35,0,15.22,0c4.71,0,11.8,0,21.29,0c9.48,0,16.64,0,21.47,0c18.84,0,32.13,5.38,39.86,16.12
		c6.76,9.42,10.15,24.09,10.15,44.02c0,22.23-3.69,38.35-11.05,48.37c-8.46,11.48-23.13,17.21-44.03,17.21c-4.23,0-10.57,0-19.02,0
		c-8.46,0-14.67,0-18.66,0c-3.75,0-8.76,0-15.04,0c-6.28,0-10.45,0-12.5,0v-7.61c6.07,0,9.95-0.6,11.62-1.81
		c1.67-1.21,2.51-3.38,2.51-6.52v-3.62V486.18z M716.37,390.53v109.42l8.7,0.73c16.55,0,28.02-5.23,34.42-15.68
		c5.07-8.27,7.61-21.52,7.61-39.76c0-21.76-3.2-36.72-9.6-44.86c-5.56-7.05-13.83-10.58-24.82-10.58h-3.99L716.37,390.53z"/>
</g>
<g>
	<linearGradient id="SVGID_8_" gradientUnits="userSpaceOnUse" x1="-387.1206" y1="-269.5809" x2="-146.9905" y2="-269.5809">
		<stop  offset="0" style="stop-color:#752829"/>
		<stop  offset="1" style="stop-color:#E72128"/>
	</linearGradient>
	<path class="st8" d="M-387.12-240.72l40.49-33.02l5-31.02l3.5,23.02l40.53-28.52c0,0,68.05,78.06,150.61,80.56
		c-37.53,2-82.56,5.5-151.11-60.04C-315.11-278.75-387.12-240.72-387.12-240.72z"/>
	<polygon class="st1" points="-361.64,-191.27 -353.64,-191.27 -357.64,-250.77 	"/>
	<rect x="-323.45" y="-267.63" class="st1" width="12.68" height="11.9"/>
	<rect x="-303.89" y="-267.63" class="st1" width="12.68" height="11.9"/>
	<linearGradient id="SVGID_9_" gradientUnits="userSpaceOnUse" x1="-323.4489" y1="-244.822" x2="-310.7732" y2="-244.822">
		<stop  offset="0" style="stop-color:#752829"/>
		<stop  offset="1" style="stop-color:#E72128"/>
	</linearGradient>
	<rect x="-323.45" y="-250.77" class="st9" width="12.68" height="11.9"/>
	<linearGradient id="SVGID_10_" gradientUnits="userSpaceOnUse" x1="-303.8934" y1="-244.822" x2="-291.2177" y2="-244.822">
		<stop  offset="0" style="stop-color:#752829"/>
		<stop  offset="1" style="stop-color:#E72128"/>
	</linearGradient>
	<rect x="-303.89" y="-250.77" class="st10" width="12.68" height="11.9"/>
	<g>
		<linearGradient id="SVGID_11_" gradientUnits="userSpaceOnUse" x1="-322.2006" y1="-206.6507" x2="-297.7738" y2="-206.6507">
			<stop  offset="0" style="stop-color:#752829"/>
			<stop  offset="1" style="stop-color:#E72128"/>
		</linearGradient>
		<path class="st11" d="M-312.04-193.23h5.02c2.51,0,4.11-0.47,4.8-1.43c0.51-0.68,0.91-2.53,1.21-5.53h3.23v9l-17.47-0.09h-6.95
			v-1.78c1.6,0,2.61-0.15,3.03-0.45c0.42-0.3,0.62-0.86,0.62-1.69v-0.8v-0.62v-20.06v-0.53v-0.8c0-0.89-0.16-1.47-0.49-1.74
			c-0.48-0.39-1.53-0.58-3.16-0.58v-1.78c0.56,0,1.63,0,3.21,0s2.84,0,3.79,0c0.86,0,2.1,0,3.72,0c1.62,0,2.75,0,3.37,0v1.78
			c-1.74,0-2.83,0.16-3.27,0.49c-0.44,0.33-0.65,1.03-0.65,2.1v1.07V-193.23z"/>
		<linearGradient id="SVGID_12_" gradientUnits="userSpaceOnUse" x1="-295.0106" y1="-206.6507" x2="-262.0258" y2="-206.6507">
			<stop  offset="0" style="stop-color:#752829"/>
			<stop  offset="1" style="stop-color:#E72128"/>
		</linearGradient>
		<path class="st12" d="M-275.58-203.75h-9.09l-2.05,6.95c-0.3,0.89-0.45,1.52-0.45,1.87l-0.09,0.09c0,0.68,0.51,1.17,1.52,1.47
			c0.71,0.21,1.52,0.31,2.41,0.31v1.87c-0.68,0-1.71,0-3.08,0c-1.37,0-2.39,0-3.08,0c-0.62,0-1.55,0-2.76,0c-1.22,0-2.14,0-2.76,0
			v-1.87c1.04,0,1.81-0.1,2.3-0.29c0.49-0.19,0.94-0.45,1.36-0.78c0.42-0.39,0.92-1.23,1.52-2.54c0.47-1.04,1.08-2.58,1.83-4.61
			c0.74-2.04,1.6-4.35,2.58-6.93c0.86-2.29,1.73-4.59,2.61-6.91c0.88-2.32,1.72-4.65,2.52-7h2.41h2.41l8.29,23.54
			c0.68,1.84,1.08,2.88,1.2,3.12c0.77,1.6,2.1,2.41,3.97,2.41v1.87c-0.74,0-1.95,0-3.61,0c-1.66,0-2.93,0-3.79,0
			c-0.95,0-2.04,0-3.25,0c-1.22,0-2.57,0-4.06,0v-1.87c0.53-0.03,1.07-0.07,1.6-0.13c1.46-0.21,2.23-0.7,2.32-1.47v-0.18
			c0-0.24-0.07-0.56-0.2-0.98c-0.13-0.42-0.24-0.8-0.33-1.16L-275.58-203.75z M-283.96-205.8h7.58l-3.83-10.88L-283.96-205.8z"/>
		<linearGradient id="SVGID_13_" gradientUnits="userSpaceOnUse" x1="-259.4405" y1="-206.6507" x2="-226.2771" y2="-206.6507">
			<stop  offset="0" style="stop-color:#752829"/>
			<stop  offset="1" style="stop-color:#E72128"/>
		</linearGradient>
		<path class="st13" d="M-255.79-196.56v-20.19v-0.54v-0.81c0-0.9-0.17-1.48-0.5-1.75c-0.46-0.39-1.51-0.58-3.15-0.58v-1.69
			c0.53,0,1.32,0,2.36,0c1.04,0,1.83,0,2.36,0h4.28l17.65,23.45v-18.07c0-1.65-0.22-2.67-0.65-3.08c-0.43-0.4-1.61-0.61-3.54-0.61
			v-1.69c0.59,0,1.61,0,3.05,0c1.44,0,2.18,0,2.21,0c0.59,0,1.49,0,2.7,0c1.2,0,2.12,0,2.74,0v1.69c-1.93,0-3.08,0.19-3.45,0.56
			c-0.37,0.37-0.56,1.41-0.56,3.11v25.57h-0.98c-0.3,0-0.58,0-0.85,0c-0.39,0-0.67,0-0.85,0c-0.39,0-0.82,0-1.29,0
			c-0.48,0-0.85,0-1.11,0l-17.92-24.07v18.69c0,1.65,0.2,2.66,0.6,3.03c0.4,0.37,1.63,0.56,3.68,0.56v1.78c-0.68,0-1.65,0-2.9,0
			c-1.25,0-2.18,0-2.81,0h-4.72v-1.78c1.69,0,2.73-0.2,3.1-0.61C-255.97-193.98-255.79-194.97-255.79-196.56z"/>
		<linearGradient id="SVGID_14_" gradientUnits="userSpaceOnUse" x1="-224.4048" y1="-206.6507" x2="-194.8072" y2="-206.6507">
			<stop  offset="0" style="stop-color:#752829"/>
			<stop  offset="1" style="stop-color:#E72128"/>
		</linearGradient>
		<path class="st14" d="M-220.93-196.62v-20.06v-0.45v-0.89c0-0.86-0.17-1.44-0.5-1.74c-0.46-0.39-1.45-0.58-2.97-0.58v-1.78
			c0.47,0,1.49,0,3.03,0c1.54,0,2.79,0,3.74,0c1.16,0,2.9,0,5.24,0c2.33,0,4.09,0,5.28,0c4.64,0,7.9,1.32,9.81,3.97
			c1.66,2.32,2.5,5.93,2.5,10.83c0,5.47-0.91,9.44-2.72,11.9c-2.08,2.82-5.69,4.23-10.83,4.23c-1.04,0-2.6,0-4.68,0
			c-2.08,0-3.61,0-4.59,0c-0.92,0-2.15,0-3.7,0c-1.55,0-2.57,0-3.08,0v-1.87c1.49,0,2.45-0.15,2.86-0.45
			c0.41-0.3,0.62-0.83,0.62-1.6V-196V-196.62z M-214.42-220.16v26.92l2.14,0.18c4.07,0,6.89-1.29,8.47-3.86
			c1.25-2.03,1.87-5.29,1.87-9.78c0-5.35-0.79-9.03-2.36-11.04c-1.37-1.73-3.4-2.6-6.11-2.6h-0.98L-214.42-220.16z"/>
	</g>
</g>
</svg>
